<?xml version="1.0" encoding="iso-8859-1"?>
<!-- Generator: Adobe Illustrator 19.0.0, SVG Export Plug-In . SVG Version: 6.00 Build 0)  -->
<svg version="1.1" id="Capa_1" xmlns="http://www.w3.org/2000/svg" x="0px" y="0px"
     viewBox="0 0 512 512" style="enable-background:new 0 0 512 512;" xml:space="preserve">
<rect x="397.241" y="494.345" style="fill:#543221;" width="17.655" height="17.655"/>
    <path style="fill:#75462E;" d="M476.69,123.586l-4.414-61.793C469.866,27.004,440.947,0.009,406.069,0l0,0
	c-34.878,0.009-63.797,27.004-66.207,61.793l-4.414,61.793H476.69z"/>
    <path style="fill:#FEC9A3;"
          d="M52.966,26.483v44.138c0,19.5,15.81,35.31,35.31,35.31s35.31-15.81,35.31-35.31V26.483H52.966z"/>
    <path style="fill:#F7BB8F;" d="M97.103,26.483v44.138c-0.026,14.362-8.757,27.277-22.069,32.662
	c4.202,1.739,8.695,2.639,13.241,2.648c19.5,0,35.31-15.81,35.31-35.31V26.483H97.103z"/>
    <polygon style="fill:#75462E;"
             points="141.241,273.655 141.241,494.345 150.069,512 26.483,512 35.31,494.345 35.31,273.655 "/>
    <rect x="79.448" y="308.966" style="fill:#543221;" width="17.655" height="203.034"/>
    <path style="fill:#75462E;" d="M44.138,0l5.473,21.981c1.977,7.839,9.039,13.33,17.126,13.33h56.85v-15.89
	C123.542,8.713,114.873,0.044,104.166,0H44.138z"/>
    <rect x="361.931" y="344.276" style="fill:#FEC9A3;" width="88.276" height="150.069"/>
    <rect x="361.931" y="344.276" style="fill:#F7BB8F;" width="88.276" height="17.655"/>
    <polygon style="fill:#75462E;" points="361.931,494.345 353.103,512 459.034,512 450.207,494.345 "/>
    <rect x="397.241" y="344.276" style="fill:#F7BB8F;" width="17.655" height="167.724"/>
    <path style="fill:#FEC9A3;" d="M441.379,44.138v35.31c0,19.5-15.81,35.31-35.31,35.31l0,0c-19.5,0-35.31-15.81-35.31-35.31V61.793
	l44.138-35.31L441.379,44.138z"/>
    <path style="fill:#F7BB8F;" d="M414.897,26.483l-8.033,6.444l16.861,11.211v35.31c-0.053,16.057-10.937,30.058-26.483,34.074
	c2.878,0.777,5.844,1.192,8.828,1.236c19.5,0,35.31-15.81,35.31-35.31v-35.31L414.897,26.483z"/>
    <g>
	<path style="fill:#FEC9A3;" d="M361.931,114.759h-12.182c-13.321-0.124-24.664,9.666-26.483,22.863l-8.828,65.412l-49.611,35.31
		v44.138l79.448-52.966L361.931,114.759z"/>
        <path style="fill:#FEC9A3;" d="M488.607,137.622c-1.818-13.197-13.162-22.987-26.483-22.863h-11.917l29.484,194.207H512
		L488.607,137.622z"/>
        <rect x="370.759" y="114.759" style="fill:#FEC9A3;" width="70.621" height="61.793"/>
        <rect y="158.897" style="fill:#FEC9A3;" width="35.31" height="150.069"/>
</g>
    <path style="fill:#4398D1;" d="M174.08,123.586c-3.734-10.558-13.7-17.62-24.894-17.655H35.31c-19.5,0-35.31,15.81-35.31,35.31
	v17.655h35.31v114.759h105.931V150.069l6.268,14.036l33.898-20.48L174.08,123.586z"/>
    <polygon style="fill:#FEC9A3;" points="203.034,203.034 181.407,143.625 147.509,164.105 176.552,229.517 238.345,264.828
	247.172,229.517 "/>
    <polygon style="fill:#87CED9;" points="450.207,114.759 485.517,344.276 326.621,344.276 361.931,114.759 379.586,114.759
	406.069,158.897 432.552,114.759 "/>
    <path style="fill:#F0B184;" d="M300.138,238.345c-0.018-7.309-2.295-14.433-6.532-20.392l-28.778,20.392v44.138l35.31-23.305
	c0-1.059,0-2.119,0-3.178V238.345z"/>
    <polygon style="fill:#75462E;"
             points="291.31,494.345 291.31,388.414 220.69,388.414 220.69,494.345 211.862,512 300.138,512 "/>
    <rect x="247.172" y="414.897" style="fill:#543221;" width="17.655" height="97.103"/>
    <path style="fill:#87CED9;" d="M291.31,344.276h35.31v-17.655c0-19.5-15.81-35.31-35.31-35.31H220.69
	c-19.5,0-35.31,15.81-35.31,35.31l0,0v17.655h35.31v44.138h70.621V344.276z"/>
    <g>
	<rect x="185.379" y="344.276" style="fill:#FEC9A3;" width="35.31" height="70.621"/>
        <rect x="291.31" y="344.276" style="fill:#FEC9A3;" width="35.31" height="70.621"/>
</g>
    <path style="fill:#F7BB8F;" d="M247.172,229.517l-25.6-15.36c-6.206,6.532-9.675,15.183-9.71,24.188v11.388l26.483,15.095
	L247.172,229.517z"/>
    <path style="fill:#FEC9A3;" d="M256,203.034L256,203.034c19.5,0,35.31,15.81,35.31,35.31V256c0,19.5-15.81,35.31-35.31,35.31l0,0
	c-19.5,0-35.31-15.81-35.31-35.31v-17.655C220.69,218.845,236.5,203.034,256,203.034z"/>
    <path style="fill:#F7BB8F;" d="M256,203.034c-2.984,0.044-5.95,0.459-8.828,1.236c15.545,4.017,26.43,18.017,26.483,34.074V256
	c-0.053,16.057-10.937,30.058-26.483,34.074c2.878,0.777,5.844,1.192,8.828,1.236c19.5,0,35.31-15.81,35.31-35.31v-17.655
	C291.31,218.845,275.5,203.034,256,203.034z"/>
    <path style="fill:#75462E;" d="M291.31,238.345c-0.212-19.5-16.199-35.134-35.699-34.922c-13.25,0.141-25.309,7.698-31.214,19.562
	c16.463,10.028,35.363,15.334,54.643,15.36H291.31z"/>
    <path style="fill:#3E8CC7;" d="M174.08,123.586c-3.734-10.558-13.7-17.62-24.894-17.655h-5.65
	c-26.483,59.851-71.239,107.52-108.226,139.564v28.16h105.931V150.069l6.268,14.036l33.898-20.48L174.08,123.586z"/>
    <g>
	<path style="fill:#6EC1D4;" d="M328.386,332.977l-1.766,11.299h158.897l-15.36-100.017
		C429.903,291.31,367.757,319.029,328.386,332.977z"/>
        <path style="fill:#6EC1D4;"
              d="M333.241,301.109l-6.621,43.167h17.655v-17.655C344.241,316.963,340.25,307.747,333.241,301.109z"/>
        <path style="fill:#6EC1D4;"
              d="M220.69,388.414h70.621v-32.927c-25.159,8.298-49.876,15.183-70.621,20.568V388.414z"/>
</g>
    <g>
</g>
    <g>
</g>
    <g>
</g>
    <g>
</g>
    <g>
</g>
    <g>
</g>
    <g>
</g>
    <g>
</g>
    <g>
</g>
    <g>
</g>
    <g>
</g>
    <g>
</g>
    <g>
</g>
    <g>
</g>
    <g>
</g>
</svg>
