<svg xmlns="http://www.w3.org/2000/svg" xmlns:xlink="http://www.w3.org/1999/xlink" width="375" height="299.001" viewBox="0 0 375 299.001"><defs><style>.a{fill:url(#a);}</style><radialGradient id="a" cx="0.5" cy="0.5" r="0.836" gradientTransform="matrix(0.575, 0.818, -0.636, 0.447, 0.531, -0.133)" gradientUnits="objectBoundingBox"><stop offset="0" stop-color="#222831"/><stop offset="1" stop-color="#6b6f75"/></radialGradient></defs><path class="a" d="M365.5,322a19.753,19.753,0,0,1-5.6-.8,17.733,17.733,0,0,1-4.775-2.2h-.21c-37.642-28.8-99.854-46-166.419-46S59.723,290.2,22.082,319h-.21a17.709,17.709,0,0,1-4.775,2.2,20.057,20.057,0,0,1-11.192,0A17.706,17.706,0,0,1,1.13,319H0V23H375V319.54a17.99,17.99,0,0,1-3.9,1.665A19.8,19.8,0,0,1,365.5,322Z" transform="translate(0 -23)"/></svg>